<?xml version="1.0" encoding="UTF-8"?>
<svg width="53px" height="54px" viewBox="0 0 53 54" version="1.1" xmlns="http://www.w3.org/2000/svg" xmlns:xlink="http://www.w3.org/1999/xlink">
    <!-- Generator: Sketch 49.1 (51147) - http://www.bohemiancoding.com/sketch -->
    <title>Combined Shape</title>
    <desc>Created with Sketch.</desc>
    <defs></defs>
    <g id="Page-1" stroke="none" stroke-width="1" fill="none" fill-rule="evenodd">
        <g id="Index" transform="translate(-79.000000, -48.000000)" fill="#EDEDED">
            <g id="Header" transform="translate(63.000000, 48.000000)">
                <g id="Logos">
                    <path d="M60.30586,28.0744134 C64.6558948,27.4539849 69,30.7773368 69,35.6487497 L69,54 L64,54 L64,50.1757476 C64,50.0413289 63.8427668,49.9567469 63.7157561,50.0230788 L56.0739727,54 L49.1545293,54 L18,54 L31.0869927,45.7391258 L60.30586,28.0744134 Z M67.8693899,18.6370259 L16,49.9954575 L16,0.053864611 C27.1658309,0.053864611 38.3349988,0.0119961507 49.5023127,0.0216296017 C53.7914156,0.0253347752 58.2540402,-0.325545154 62.224649,1.66561508 C64.8119034,2.80050971 67.1896711,4.73757441 68.2122632,7.44383312 C69.2823143,10.2753267 69.1251065,13.4662221 68.5504083,16.3884924 C68.3985307,17.1616634 68.1672893,17.9124346 67.8693872,18.6370284 Z M34,15.1171565 L34,20.8827733 C34,20.9724565 34.1098824,21.0286664 34.1985088,20.9847721 L43.5936324,16.3130373 C44.3073275,15.9580941 44.0209128,15 43.200938,15 L34.1329397,15 C34.0594446,15 34,15.0524204 34,15.1171565 Z" id="Combined-Shape"></path>
                </g>
            </g>
        </g>
    </g>
</svg>
