<?xml version="1.0" encoding="UTF-8"?>
<svg width="53px" height="54px" viewBox="0 0 53 54" version="1.1" xmlns="http://www.w3.org/2000/svg" xmlns:xlink="http://www.w3.org/1999/xlink">
    <!-- Generator: Sketch 49.1 (51147) - http://www.bohemiancoding.com/sketch -->
    <title>Combined Shape</title>
    <desc>Created with Sketch.</desc>
    <defs></defs>
    <g id="Page-1" stroke="none" stroke-width="1" fill="none" fill-rule="evenodd">
        <g id="Index" transform="translate(-197.000000, -40.000000)" fill="#222932">
            <g id="Header" transform="translate(60.000000, 37.000000)">
                <g id="Logos">
                    <g id="Logo-Round-Copy-2" transform="translate(137.000000, 3.000000)">
                        <path d="M45.0414163,28.0066267 C49.1323217,27.8339749 53,31.0522213 53,35.6487497 L53,54 L47,54 L47,50.1757476 C47,50.0413289 46.8427668,49.9567469 46.7157561,50.0230788 L39.0739727,54 L33.1545293,54 L2,54 L21.6463723,41.5986627 L45.0414163,28.0066267 Z M0,49.3600835 L0,0.053864611 C11.1658309,0.053864611 22.3349988,0.0119961507 33.5023127,0.0216296017 C37.7914156,0.0253347752 42.2540402,-0.325545154 46.224649,1.66561508 C48.8119034,2.80050971 51.1896711,4.73757441 52.2122632,7.44383312 C53.2823143,10.2753267 53.1251065,13.4662221 52.5504083,16.3884924 C52.3421046,17.448915 51.9845112,18.4672019 51.5104019,19.4336068 L-1.77635684e-15,49.3600835 Z M18,15.1171565 L18,20.8827733 C18,20.9724565 18.1098824,21.0286664 18.1985088,20.9847721 L27.5936324,16.3130373 C28.3073275,15.9580941 28.0209128,15 27.200938,15 L18.1329397,15 C18.0594446,15 18,15.0524204 18,15.1171565 Z" id="Combined-Shape"></path>
                    </g>
                </g>
            </g>
        </g>
    </g>
</svg>