<?xml version="1.0" encoding="utf-8"?>
<!-- Generator: Adobe Illustrator 22.1.0, SVG Export Plug-In . SVG Version: 6.00 Build 0)  -->
<svg version="1.1" id="Layer_1" xmlns="http://www.w3.org/2000/svg" xmlns:xlink="http://www.w3.org/1999/xlink" x="0px" y="0px"
	 viewBox="0 0 2500 1425" style="enable-background:new 0 0 2500 1425;" xml:space="preserve">
<style type="text/css">
	.st0{fill:#F7D07F;}
</style>
<path class="st0" d="M28.4,649.3c-5.2,0-9.4,4-10,9.8L0.1,797.9l18.3,136.5c0.7,5.8,4.8,9.8,10,9.8c5.1,0,9.2-4,10-9.7v0v0
	l21.7-136.5L38.4,659.1C37.6,653.3,33.4,649.3,28.4,649.3L28.4,649.3z M131.2,573.4c-0.9-6-5.1-10.1-10.4-10.1
	c-5.3,0-9.7,4.2-10.4,10.1c0,0.1-24.6,224.5-24.6,224.5l24.6,219.5c0.7,5.9,5.1,10.1,10.4,10.1c5.2,0,9.5-4.1,10.4-10.1l28-219.6
	L131.2,573.4L131.2,573.4z M518.5,366.3c-10.1,0-18.4,8.3-18.9,18.7l-19.6,413l19.6,266.9c0.5,10.4,8.8,18.7,18.9,18.7
	c10,0,18.3-8.3,18.9-18.7v0.1l22.1-267l-22.1-413C536.8,374.6,528.5,366.3,518.5,366.3z M318,509.9c-7.7,0-14.1,6.2-14.7,14.4
	l-22,273.7l22,264.8c0.6,8.2,6.9,14.4,14.7,14.4c7.7,0,14-6.2,14.7-14.4L357.7,798l-25.1-273.7C332,516.1,325.7,509.9,318,509.9z
	 M722.1,1083.7c12.5,0,22.7-10.1,23.2-23l19.2-262.4l-19.2-549.9c-0.5-12.9-10.7-23-23.2-23c-12.6,0-22.8,10.1-23.2,23l-17,549.9
	l17,262.5C699.4,1073.6,709.5,1083.7,722.1,1083.7z M1139.1,1084.9c17.2,0,31.4-14.2,31.7-31.6v0.2v-0.2l13.4-254.9l-13.4-635.1
	c-0.3-17.4-14.5-31.6-31.7-31.6c-17.2,0-31.5,14.2-31.7,31.6l-12,634.9c0,0.4,12,255.3,12,255.3
	C1107.6,1070.8,1121.9,1084.9,1139.1,1084.9z M929,1083.9c15,0,27-12,27.4-27.3v0.2l16.3-258.5l-16.3-553.9
	c-0.4-15.3-12.5-27.3-27.4-27.3c-15.1,0-27.2,12-27.5,27.3L887,798.3l14.5,258.4C901.9,1071.9,913.9,1083.9,929,1083.9L929,1083.9z
	 M417.9,1081.5c8.9,0,16.1-7.1,16.8-16.5l23.6-267l-23.6-254c-0.6-9.4-7.8-16.5-16.8-16.5c-9,0-16.2,7.1-16.8,16.6L380.3,798
	l20.8,267C401.6,1074.4,408.8,1081.5,417.9,1081.5z M219,1066.9c6.5,0,11.8-5.1,12.5-12.2L258.1,798l-26.5-266.4
	c-0.8-7.1-6-12.3-12.6-12.3c-6.6,0-11.9,5.2-12.5,12.3L183.2,798l23.3,256.6C207.1,1061.7,212.4,1066.9,219,1066.9L219,1066.9z
	 M1033.7,235.2c-16.3,0-29.3,12.9-29.6,29.5l-13.2,533.7l13.2,256.8c0.3,16.3,13.3,29.3,29.6,29.3c16.2,0,29.2-12.9,29.6-29.5v0.2
	l14.8-256.8l-14.8-533.8C1062.8,248.1,1049.9,235.2,1033.7,235.2L1033.7,235.2z M619.9,1084.2c11.2,0,20.5-9.2,21.1-20.9l20.6-265.2
	L641,290.7c-0.6-11.7-9.8-20.9-21.1-20.9c-11.3,0-20.6,9.2-21.1,20.9l-18.3,507.5l18.3,265.3
	C599.3,1075.1,608.6,1084.2,619.9,1084.2z M850.5,1059.2v-0.1l17.7-260.8l-17.7-568.4c-0.4-14.1-11.6-25.2-25.3-25.2
	c-13.8,0-24.9,11-25.3,25.2l-15.8,568.4l15.8,260.9c0.4,14,11.5,25,25.3,25c13.8,0,24.8-11,25.3-25.1L850.5,1059.2L850.5,1059.2z
	 M2192.4,470.6c-42.1,0-82.3,8.5-118.9,23.9C2049,217.4,1816.7,0,1533.2,0c-69.4,0-137,13.7-196.7,36.7c-23.2,9-29.4,18.2-29.6,36.2
	v975.9c0.2,18.8,14.8,34.5,33.2,36.3c0.8,0.1,846.8,0.5,852.3,0.5c169.8,0,307.5-137.7,307.5-307.5
	C2499.9,608.3,2362.2,470.6,2192.4,470.6L2192.4,470.6z M1244.1,72c-18.5,0-33.6,15.2-33.9,33.8l-13.9,692.7l13.9,251.4
	c0.2,18.4,15.4,33.5,33.9,33.5c18.4,0,33.6-15.1,33.8-33.8v0.3l15.1-251.4l-15.1-692.7C1277.6,87.2,1262.5,72,1244.1,72L1244.1,72z
	 M248.4,1281.1c-36.4-8.6-46.2-13.1-46.2-27.5c0-10.2,8.2-20.7,32.8-20.7c21,0,37.4,8.5,52.1,23.6l33.1-32.1
	c-21.6-22.6-47.9-36.1-83.6-36.1c-45.3,0-82,25.6-82,67.2c0,45.2,29.5,58.7,71.8,68.5c43.3,9.8,51.1,16.4,51.1,31.2
	c0,17.4-12.8,24.9-40,24.9c-22,0-42.6-7.5-58.7-26.3l-33.1,29.5c17.4,25.6,50.8,41.6,89.1,41.6c62.6,0,90.2-29.5,90.2-73.1
	C325.1,1302.1,284.8,1289.6,248.4,1281.1L248.4,1281.1z M459.5,1188.4c-62.6,0-99.6,48.5-99.6,118.3c0,69.8,37,118.3,99.6,118.3
	s99.7-48.5,99.7-118.3C559.2,1236.9,522.1,1188.4,459.5,1188.4z M459.5,1379.5c-37,0-52.5-31.8-52.5-72.7c0-41,15.4-72.8,52.5-72.8
	c37.1,0,52.5,31.8,52.5,72.8C512,1347.7,496.6,1379.5,459.5,1379.5z M744.4,1320.8c0,36.7-18.1,59.3-47.2,59.3
	c-29.2,0-46.9-23.3-46.9-60v-128.2h-45.9v128.9c0,66.8,37.4,104.2,92.8,104.2c58.3,0,93.1-38.4,93.1-104.8v-128.2h-45.9V1320.8z
	 M988.2,1289c0,12.8,0.6,41.6,0.6,50.1c-3-5.9-10.5-17.4-16-25.9l-81.3-121.3h-43.9v229.5h45.2v-101c0-12.8-0.6-41.6-0.6-50.1
	c2.9,5.9,10.5,17.4,16,25.9l84.3,125.2h41v-229.5h-45.2L988.2,1289L988.2,1289L988.2,1289z M1164.3,1191.9h-71.8v229.5h68.5
	c59,0,117.4-34.1,117.4-114.7C1278.3,1222.8,1229.8,1191.9,1164.3,1191.9z M1160.9,1376.9h-22.6v-140.3h24.2
	c48.5,0,68.5,23.3,68.5,70.1C1231.1,1348.7,1209.2,1376.9,1160.9,1376.9z M1420.2,1233.9c20.6,0,33.8,9.2,42,24.9l42.6-19.7
	c-14.4-29.8-40.7-50.8-83.9-50.8c-59.9,0-101.9,48.5-101.9,118.3c0,72.4,40.3,118.3,100.3,118.3c41.6,0,69.2-19.3,84.9-51.8
	l-38.7-23c-12.1,20.4-24.3,29.2-44.9,29.2c-34.4,0-54.4-31.5-54.4-72.7C1366.1,1264.1,1385.9,1233.9,1420.2,1233.9L1420.2,1233.9z
	 M1590.4,1191.9h-45.9v229.5h137.9v-45.3h-92V1191.9L1590.4,1191.9z M1803.4,1188.4c-62.6,0-99.7,48.5-99.7,118.3
	c0,69.8,37,118.3,99.7,118.3c62.6,0,99.6-48.5,99.6-118.3C1903,1236.9,1865.9,1188.4,1803.4,1188.4L1803.4,1188.4z M1803.4,1379.5
	c-37.1,0-52.5-31.8-52.5-72.7c0-41,15.4-72.8,52.5-72.8c37,0,52.4,31.8,52.4,72.8C1855.8,1347.7,1840.4,1379.5,1803.4,1379.5z
	 M2088.2,1320.8c0,36.7-18,59.3-47.2,59.3c-29.2,0-46.9-23.3-46.9-60v-128.2h-45.9v128.9c0,66.8,37.4,104.2,92.8,104.2
	c58.3,0,93.1-38.4,93.1-104.8v-128.2h-45.9L2088.2,1320.8L2088.2,1320.8z M2263.2,1191.9h-71.8v229.5h68.5
	c59,0,117.3-34.1,117.3-114.7C2377.3,1222.8,2328.8,1191.9,2263.2,1191.9L2263.2,1191.9z M2259.9,1376.9h-22.6v-140.3h24.3
	c48.5,0,68.5,23.3,68.5,70.1C2330.1,1348.7,2308.1,1376.9,2259.9,1376.9z"/>
</svg>
