<?xml version="1.0" encoding="utf-8"?>
<!-- Generator: Adobe Illustrator 22.1.0, SVG Export Plug-In . SVG Version: 6.00 Build 0)  -->
<svg version="1.1" id="Layer_1" xmlns="http://www.w3.org/2000/svg" xmlns:xlink="http://www.w3.org/1999/xlink" x="0px" y="0px"
	 viewBox="0 0 524 1030" style="enable-background:new 0 0 524 1030;" xml:space="preserve">
<style type="text/css">
	.st0{fill:#222932;}
	.st1{fill:#F7D07F;}
	.st2{fill:#FFE2C0;}
	.st3{fill:#FFD694;}
</style>
<title>Feather FInal</title>
<desc>Created with Sketch.</desc>
<g id="Page-1">
	<g id="Index" transform="translate(-890.000000, -1229.000000)">
		<g id="Background" transform="translate(-162.000000, -231.000000)">
			<g id="Feather-FInal" transform="translate(1052.000000, 1460.000000)">
				<path id="Fill-13" class="st0" d="M192.1,316c-10.5,0-19-8.5-19-19c0-10.5,8.5-19,19-19c10.5,0,19,8.5,19,19
					C211.2,307.5,202.6,316,192.1,316z"/>
				<g>
					<path class="st1" d="M424.7,498.4c-0.9-10.6-1.7-21.9-2.4-33.8l-31.8-16.9l30.4-28.8c-0.2-32.7,1.1-69.1,5.1-108.9L296,364.3
						v593.8c55.8-31.2,119.4-80.4,147.1-156.8C475.8,711.4,437.4,642.9,424.7,498.4z"/>
					<path class="st2" d="M414,542.1c-0.8-8.7-1.4-17.9-1.9-27.7l-26-13.8l24.9-23.5c-0.2-26.7,0.9-56.4,4.2-89l-106.3,44.4v485.3
						c45.6-25.5,97.6-65.7,120.2-128.1C455.8,716.2,424.4,660.2,414,542.1z"/>
					<path class="st1" d="M296,337.2l133.3-55.6c2.1-16.6,4.6-33.7,7.7-51.3l-32.1,13l-3.7-62.8L296,133.7V337.2z"/>
					<path class="st1" d="M259,377l-124.1,51.8c-0.4,28.6-2,54.1-4.1,76.2c-9.3,100-30.7,163-30.8,222.9l22.6-8.9l-20.3,41.6
						c2,13.3,5.3,26.8,10.4,40.8c27.9,77,92.2,126,146.2,156.3V377z"/>
					<path class="st1" d="M274.4,966c0.9,0.5,1.8,1,2.8,1.4c0.4,0.4,1.1,0.4,1.7-0.2c0.8-0.4,1.6-0.8,2.4-1.2H274.4z"/>
					<path class="st1" d="M259,351v-217c-48.7,21.7-97.3,43.4-146.2,65.4c15.8,77.7,21.5,146,22.1,203.3L259,351z M191.6,263.2
						c18.4,0,33.2,14.9,33.2,33.2c0,18.4-14.9,33.2-33.2,33.2c-18.4,0-33.2-14.9-33.2-33.2C158.4,278.1,173.3,263.2,191.6,263.2z"/>
				</g>
				<g id="Group-26" transform="translate(61.000000, 0.000000)">
					<polygon id="Fill-9" class="st3" points="224,910 240,873 240,0 224.8,0 					"/>
					<polygon id="Fill-9-Copy" class="st3" points="183,1030 199,993 199,120 183.8,120 					"/>
				</g>
			</g>
		</g>
	</g>
</g>
</svg>
